<svg width="29" height="20" viewBox="0 0 29 20" fill="none" xmlns="http://www.w3.org/2000/svg">
<path d="M3.22222 0L0 0L0 19.3333H3.22222L3.22222 0Z" fill="#0E0E0E"/>
<path d="M11.3266 0L8.10439 0L8.10439 19.3333H11.3266L11.3266 0Z" fill="#0E0E0E"/>
<path d="M16.2088 0L12.9866 0L12.9866 19.3333H16.2088L16.2088 0Z" fill="#0E0E0E"/>
<path d="M28.9999 0L24.2154 0L24.2154 19.3333H28.9999L28.9999 0Z" fill="#0E0E0E"/>
<path d="M6.44449 0L4.88219 0L4.88219 19.3333H6.44449L6.44449 0Z" fill="#0E0E0E"/>
<path d="M19.3333 0L17.771 0L17.771 19.3333H19.3333L19.3333 0Z" fill="#0E0E0E"/>
<path d="M22.5555 0L20.9932 0L20.9932 19.3333H22.5555L22.5555 0Z" fill="#0E0E0E"/>
</svg>
